<svg id="svg-element" style="background-color:rgba(255,255,255,1.0); display:inline; width:100%; min-width:100%; max-width:100%; height:100%; min-height:100%; max-height:100%;" version="1.1" viewBox="-477.372375 -300 1920 1858" xmlns="http://www.w3.org/2000/svg" xmlns:xlink="http://www.w3.org/1999/xlink">

<!-- <Sig app="miMind" company="CryptoBees" version="2.86" platform="Android" website="https://mimind.cryptobees.com"/> -->

<defs>
<style type="text/css"><![CDATA[ .round { stroke-linejoin: round; } ]]>
@font-face {
font-family: "LiberationSans";
 src:
 local(LiberationSans),

    }
</style>
</defs>
<filter height="130%" id="dropshadow">
<feGaussianBlur in="SourceAlpha" stdDeviation="3"></feGaussianBlur>
<feOffset dx="2" dy="2" result="offsetblur"></feOffset>
<feMerge>
<feMergeNode></feMergeNode>
<feMergeNode in="SourceGraphic"></feMergeNode>
</feMerge>
</filter>
<path d="M269.669281,74.666672  L269.669281,176.333344 L344.669281,176.333344" fill="none" stroke="rgba(57,172,105,0.996078)" stroke-width="4"></path>
<path></path>
<path></path>
<path d="M269.669281,74.666672  L269.669281,743 L344.669281,743" fill="none" stroke="rgba(32,86,42,0.996078)" stroke-width="4"></path>
<path></path>
<path></path>
<path d="M269.669281,74.666672  L269.669281,999.666626 L344.669281,999.666626" fill="none" stroke="rgba(140,33,137,0.996078)" stroke-width="4"></path>
<path></path>
<path></path>
<polygon fill="rgba(244,204,179,0.996078)" filter="url(#dropshadow)" points="36.58667,0 36.58667,0 502.751892,0 506.319092,0.091467 509.703308,0.365867 512.904724,0.8232 515.923096,1.463467 518.758545,2.286667 521.411072,3.2928 523.880676,4.481867 526.167358,5.853868 528.271118,7.4088 530.191895,9.146667 531.929749,11.067468 533.484741,13.171202 534.856689,15.457867 536.045776,17.927467 537.05188,20.580002 537.875122,23.41547 538.515381,26.43387 538.972656,29.635201 539.247131,33.01947 539.338562,36.58667 539.338562,38.080002 539.247131,41.647202 538.972656,45.031464 538.515381,48.232803 537.875122,51.251209 537.05188,54.086674 536.045776,56.739204 534.856628,59.208801 533.484741,61.495476 531.929749,63.599201 530.191895,65.520004 528.271118,67.257874 526.167358,68.812805 523.880676,70.184799 521.411133,71.373871 518.758545,72.380005 515.923096,73.203209 512.904663,73.843468 509.703369,74.300804 506.319092,74.575211 502.751892,74.666672 36.58667,74.666672 33.01947,74.575203 29.635201,74.300797 26.43387,73.843475 23.41547,73.203209 20.580002,72.380005 17.927467,71.373871 15.457867,70.184807 13.171202,68.812813 11.067468,67.257866 9.146667,65.520004 7.4088,63.599205 5.853867,61.495468 4.481868,59.208801 3.2928,56.739204 2.286667,54.08667 1.463467,51.251205 0.8232,48.232803 0.365867,45.031471 0.091467,41.647202 0,38.080002 0,36.58667 0.091467,33.01947 0.365867,29.635201 0.8232,26.43387 1.463467,23.41547 2.286667,20.580002 3.2928,17.927467 4.481867,15.457867 5.853868,13.171202 7.4088,11.067468 9.146667,9.146667 11.067468,7.4088 13.171202,5.853867 15.457867,4.481868 17.927467,3.2928 20.580002,2.286667 23.41547,1.463467 26.43387,0.8232 29.635201,0.365867 33.01947,0.091467 36.58667,0" stroke="none"></polygon>
<g>
<text fill="rgba(0,0,0,0.996078)" font-family="LiberationSans, Arial" font-size="39.100002" lengthAdjust="spacingAndGlyphs" textLength="510.671875" x="14.333333" y="51.708332">Система&#160;налогов&#160;и&#160;сборов</text>
</g>
<polygon fill="none" points="36.58667,0 36.58667,0 502.751892,0 506.319092,0.091467 509.703308,0.365867 512.904724,0.8232 515.923096,1.463467 518.758545,2.286667 521.411072,3.2928 523.880676,4.481867 526.167358,5.853868 528.271118,7.4088 530.191895,9.146667 531.929749,11.067468 533.484741,13.171202 534.856689,15.457867 536.045776,17.927467 537.05188,20.580002 537.875122,23.41547 538.515381,26.43387 538.972656,29.635201 539.247131,33.01947 539.338562,36.58667 539.338562,38.080002 539.247131,41.647202 538.972656,45.031464 538.515381,48.232803 537.875122,51.251209 537.05188,54.086674 536.045776,56.739204 534.856628,59.208801 533.484741,61.495476 531.929749,63.599201 530.191895,65.520004 528.271118,67.257874 526.167358,68.812805 523.880676,70.184799 521.411133,71.373871 518.758545,72.380005 515.923096,73.203209 512.904663,73.843468 509.703369,74.300804 506.319092,74.575211 502.751892,74.666672 36.58667,74.666672 33.01947,74.575203 29.635201,74.300797 26.43387,73.843475 23.41547,73.203209 20.580002,72.380005 17.927467,71.373871 15.457867,70.184807 13.171202,68.812813 11.067468,67.257866 9.146667,65.520004 7.4088,63.599205 5.853867,61.495468 4.481868,59.208801 3.2928,56.739204 2.286667,54.08667 1.463467,51.251205 0.8232,48.232803 0.365867,45.031471 0.091467,41.647202 0,38.080002 0,36.58667 0.091467,33.01947 0.365867,29.635201 0.8232,26.43387 1.463467,23.41547 2.286667,20.580002 3.2928,17.927467 4.481867,15.457867 5.853868,13.171202 7.4088,11.067468 9.146667,9.146667 11.067468,7.4088 13.171202,5.853867 15.457867,4.481868 17.927467,3.2928 20.580002,2.286667 23.41547,1.463467 26.43387,0.8232 29.635201,0.365867 33.01947,0.091467 36.58667,0" stroke="rgba(230,132,71,0.996078)" stroke-width="4"></polygon>
<path d="M450.90625,203  L450.90625,304.666687 L525.90625,304.666687" fill="none" stroke="rgba(57,172,105,0.996078)" stroke-width="4"></path>
<path></path>
<path></path>
<path d="M450.90625,203  L450.90625,408 L525.90625,408" fill="none" stroke="rgba(57,172,105,0.996078)" stroke-width="4"></path>
<path></path>
<path></path>
<path d="M450.90625,203  L450.90625,511.333313 L525.90625,511.333313" fill="none" stroke="rgba(57,172,105,0.996078)" stroke-width="4"></path>
<path></path>
<path></path>
<path d="M450.90625,203  L450.90625,614.666626 L525.90625,614.666626" fill="none" stroke="rgba(57,172,105,0.996078)" stroke-width="4"></path>
<path></path>
<path></path>
<path d="M453.484375,769.666626  L453.484375,871.333252 L528.484375,871.333252" fill="none" stroke="rgba(32,86,42,0.996078)" stroke-width="4"></path>
<path></path>
<path></path>
<path d="M414.695312,1026.333252  L414.695312,1128 L489.695312,1128" fill="none" stroke="rgba(140,33,137,0.996078)" stroke-width="4"></path>
<path></path>
<path></path>
<path d="M414.695312,1026.333252  L414.695312,1231.333252 L489.695312,1231.333252" fill="none" stroke="rgba(140,33,137,0.996078)" stroke-width="4"></path>
<path></path>
<path></path>
<polygon fill="rgba(173,220,193,0.996078)" filter="url(#dropshadow)" points="370.802612,149.666672 370.802612,149.666672 531.009888,149.666672 533.994019,149.757095 536.797241,150.028381 539.419617,150.480515 541.861145,151.113495 544.121765,151.927338 546.20166,152.922043 548.100586,154.09758 549.818665,155.453979 551.355957,156.991241 552.712341,158.709351 553.887878,160.608307 554.882568,162.688126 555.696411,164.948792 556.329407,167.39032 556.781555,170.012695 557.052856,172.815918 557.14325,175.800003 557.14325,176.866669 557.052856,179.850754 556.781555,182.653992 556.329407,185.276367 555.696411,187.71788 554.882568,189.978546 553.887939,192.05838 552.712341,193.957336 551.355957,195.675446 549.818665,197.212692 548.100586,198.569092 546.201599,199.744644 544.121826,200.739349 541.861145,201.553177 539.419617,202.186172 536.797241,202.638306 533.994019,202.909576 531.009888,203 370.802612,203 367.818542,202.909576 365.01532,202.638306 362.392914,202.186172 359.951416,201.553177 357.690735,200.739334 355.610931,199.744659 353.711945,198.569092 351.993835,197.212692 350.456604,195.675446 349.100189,193.957336 347.924652,192.058365 346.929962,189.978546 346.116119,187.71788 345.483124,185.276367 345.030975,182.653992 344.759705,179.850754 344.669281,176.866669 344.669281,175.800003 344.759705,172.815918 345.030975,170.012695 345.483124,167.39032 346.116119,164.948792 346.929962,162.688126 347.924652,160.608307 349.100189,158.709351 350.456604,156.991241 351.993835,155.453979 353.711945,154.09758 355.610931,152.922028 357.690735,151.927338 359.951416,151.113495 362.392914,150.480515 365.01532,150.028381 367.818542,149.757095 370.802612,149.666672" stroke="none"></polygon>
<g>
<text fill="rgba(0,0,0,0.996078)" font-family="LiberationSans, Arial" font-size="25.5" font-weight="bold" lengthAdjust="spacingAndGlyphs" textLength="189.140625" x="356.335938" y="185.708344">федеральные</text>
</g>
<polygon fill="none" points="370.802612,149.666672 370.802612,149.666672 531.009888,149.666672 533.994019,149.757095 536.797241,150.028381 539.419617,150.480515 541.861145,151.113495 544.121765,151.927338 546.20166,152.922043 548.100586,154.09758 549.818665,155.453979 551.355957,156.991241 552.712341,158.709351 553.887878,160.608307 554.882568,162.688126 555.696411,164.948792 556.329407,167.39032 556.781555,170.012695 557.052856,172.815918 557.14325,175.800003 557.14325,176.866669 557.052856,179.850754 556.781555,182.653992 556.329407,185.276367 555.696411,187.71788 554.882568,189.978546 553.887939,192.05838 552.712341,193.957336 551.355957,195.675446 549.818665,197.212692 548.100586,198.569092 546.201599,199.744644 544.121826,200.739349 541.861145,201.553177 539.419617,202.186172 536.797241,202.638306 533.994019,202.909576 531.009888,203 370.802612,203 367.818542,202.909576 365.01532,202.638306 362.392914,202.186172 359.951416,201.553177 357.690735,200.739334 355.610931,199.744659 353.711945,198.569092 351.993835,197.212692 350.456604,195.675446 349.100189,193.957336 347.924652,192.058365 346.929962,189.978546 346.116119,187.71788 345.483124,185.276367 345.030975,182.653992 344.759705,179.850754 344.669281,176.866669 344.669281,175.800003 344.759705,172.815918 345.030975,170.012695 345.483124,167.39032 346.116119,164.948792 346.929962,162.688126 347.924652,160.608307 349.100189,158.709351 350.456604,156.991241 351.993835,155.453979 353.711945,154.09758 355.610931,152.922028 357.690735,151.927338 359.951416,151.113495 362.392914,150.480515 365.01532,150.028381 367.818542,149.757095 370.802612,149.666672" stroke="rgba(57,172,105,0.996078)" stroke-width="3"></polygon>
<polygon fill="rgba(163,185,167,0.996078)" filter="url(#dropshadow)" points="370.802612,716.333313 370.802612,716.333313 536.166138,716.333313 539.150269,716.423767 541.953491,716.695007 544.575867,717.147156 547.017395,717.780151 549.278015,718.593994 551.35791,719.588684 553.256836,720.764221 554.974976,722.120605 556.512207,723.657898 557.868591,725.375977 559.044128,727.274963 560.038818,729.354797 560.852661,731.615417 561.485657,734.056946 561.937805,736.679321 562.209106,739.482544 562.2995,742.466675 562.2995,743.533325 562.209045,746.517395 561.937805,749.320618 561.485657,751.942993 560.852661,754.384521 560.038818,756.645203 559.044128,758.725037 557.86853,760.623962 556.512207,762.342102 554.974976,763.879333 553.256836,765.235718 551.357849,766.411255 549.278076,767.406006 547.017395,768.219849 544.575867,768.852783 541.953491,769.304932 539.150269,769.576233 536.166138,769.666626 370.802612,769.666626 367.818542,769.576233 365.01532,769.304932 362.392914,768.852783 359.951416,768.219849 357.690735,767.406006 355.610931,766.411316 353.711945,765.235718 351.993835,763.879333 350.456604,762.342102 349.100189,760.623962 347.924652,758.725037 346.929962,756.645203 346.116119,754.384521 345.483124,751.942993 345.030975,749.320618 344.759705,746.517395 344.669281,743.533325 344.669281,742.466675 344.759705,739.482544 345.030975,736.679321 345.483124,734.056946 346.116119,731.615417 346.929962,729.354736 347.924652,727.274963 349.100189,725.375977 350.456604,723.657898 351.993835,722.120605 353.711945,720.764221 355.610931,719.588684 357.690735,718.593994 359.951416,717.780151 362.392914,717.147156 365.01532,716.695007 367.818542,716.423767 370.802612,716.333313" stroke="none"></polygon>
<g>
<text fill="rgba(0,0,0,0.996078)" font-family="LiberationSans, Arial" font-size="25.5" font-weight="bold" lengthAdjust="spacingAndGlyphs" textLength="194.296875" x="356.335938" y="752.375">региональные</text>
</g>
<polygon fill="none" points="370.802612,716.333313 370.802612,716.333313 536.166138,716.333313 539.150269,716.423767 541.953491,716.695007 544.575867,717.147156 547.017395,717.780151 549.278015,718.593994 551.35791,719.588684 553.256836,720.764221 554.974976,722.120605 556.512207,723.657898 557.868591,725.375977 559.044128,727.274963 560.038818,729.354797 560.852661,731.615417 561.485657,734.056946 561.937805,736.679321 562.209106,739.482544 562.2995,742.466675 562.2995,743.533325 562.209045,746.517395 561.937805,749.320618 561.485657,751.942993 560.852661,754.384521 560.038818,756.645203 559.044128,758.725037 557.86853,760.623962 556.512207,762.342102 554.974976,763.879333 553.256836,765.235718 551.357849,766.411255 549.278076,767.406006 547.017395,768.219849 544.575867,768.852783 541.953491,769.304932 539.150269,769.576233 536.166138,769.666626 370.802612,769.666626 367.818542,769.576233 365.01532,769.304932 362.392914,768.852783 359.951416,768.219849 357.690735,767.406006 355.610931,766.411316 353.711945,765.235718 351.993835,763.879333 350.456604,762.342102 349.100189,760.623962 347.924652,758.725037 346.929962,756.645203 346.116119,754.384521 345.483124,751.942993 345.030975,749.320618 344.759705,746.517395 344.669281,743.533325 344.669281,742.466675 344.759705,739.482544 345.030975,736.679321 345.483124,734.056946 346.116119,731.615417 346.929962,729.354736 347.924652,727.274963 349.100189,725.375977 350.456604,723.657898 351.993835,722.120605 353.711945,720.764221 355.610931,719.588684 357.690735,718.593994 359.951416,717.780151 362.392914,717.147156 365.01532,716.695007 367.818542,716.423767 370.802612,716.333313" stroke="rgba(32,86,42,0.996078)" stroke-width="3"></polygon>
<polygon fill="rgba(207,163,206,0.996078)" filter="url(#dropshadow)" points="370.802612,972.999939 370.802612,972.999939 458.588043,972.999939 461.572144,973.090393 464.375366,973.361633 466.997742,973.813782 469.43924,974.446777 471.699921,975.26062 473.779755,976.25531 475.67868,977.430847 477.39682,978.787231 478.934052,980.324524 480.290466,982.042603 481.466003,983.941589 482.460693,986.021423 483.274536,988.282043 483.907532,990.723572 484.35968,993.345947 484.630951,996.14917 484.721375,999.133301 484.721375,1000.199951 484.630951,1003.184021 484.35968,1005.987244 483.907532,1008.609619 483.274536,1011.051147 482.460693,1013.311829 481.466003,1015.391663 480.290466,1017.290588 478.934082,1019.008728 477.39679,1020.545959 475.678711,1021.902344 473.779724,1023.077881 471.699921,1024.072632 469.43927,1024.886475 466.997742,1025.519409 464.375366,1025.971558 461.572144,1026.242798 458.588043,1026.333252 370.802612,1026.333252 367.818542,1026.242798 365.01532,1025.971558 362.392914,1025.519409 359.951416,1024.886475 357.690735,1024.072632 355.610931,1023.077942 353.711945,1021.902344 351.993835,1020.545959 350.456604,1019.008728 349.100189,1017.290588 347.924652,1015.391663 346.929962,1013.311829 346.116119,1011.051147 345.483124,1008.609619 345.030975,1005.987244 344.759705,1003.184021 344.669281,1000.199951 344.669281,999.133301 344.759705,996.14917 345.030975,993.345947 345.483124,990.723572 346.116119,988.282043 346.929962,986.021362 347.924652,983.941589 349.100189,982.042603 350.456604,980.324524 351.993835,978.787231 353.711945,977.430847 355.610931,976.25531 357.690735,975.26062 359.951416,974.446777 362.392914,973.813782 365.01532,973.361633 367.818542,973.090393 370.802612,972.999939" stroke="none"></polygon>
<g>
<text fill="rgba(0,0,0,0.996078)" font-family="LiberationSans, Arial" font-size="25.5" font-weight="bold" lengthAdjust="spacingAndGlyphs" textLength="116.71875" x="356.335938" y="1009.041626">местные</text>
</g>
<polygon fill="none" points="370.802612,972.999939 370.802612,972.999939 458.588043,972.999939 461.572144,973.090393 464.375366,973.361633 466.997742,973.813782 469.43924,974.446777 471.699921,975.26062 473.779755,976.25531 475.67868,977.430847 477.39682,978.787231 478.934052,980.324524 480.290466,982.042603 481.466003,983.941589 482.460693,986.021423 483.274536,988.282043 483.907532,990.723572 484.35968,993.345947 484.630951,996.14917 484.721375,999.133301 484.721375,1000.199951 484.630951,1003.184021 484.35968,1005.987244 483.907532,1008.609619 483.274536,1011.051147 482.460693,1013.311829 481.466003,1015.391663 480.290466,1017.290588 478.934082,1019.008728 477.39679,1020.545959 475.678711,1021.902344 473.779724,1023.077881 471.699921,1024.072632 469.43927,1024.886475 466.997742,1025.519409 464.375366,1025.971558 461.572144,1026.242798 458.588043,1026.333252 370.802612,1026.333252 367.818542,1026.242798 365.01532,1025.971558 362.392914,1025.519409 359.951416,1024.886475 357.690735,1024.072632 355.610931,1023.077942 353.711945,1021.902344 351.993835,1020.545959 350.456604,1019.008728 349.100189,1017.290588 347.924652,1015.391663 346.929962,1013.311829 346.116119,1011.051147 345.483124,1008.609619 345.030975,1005.987244 344.759705,1003.184021 344.669281,1000.199951 344.669281,999.133301 344.759705,996.14917 345.030975,993.345947 345.483124,990.723572 346.116119,988.282043 346.929962,986.021362 347.924652,983.941589 349.100189,982.042603 350.456604,980.324524 351.993835,978.787231 353.711945,977.430847 355.610931,976.25531 357.690735,975.26062 359.951416,974.446777 362.392914,973.813782 365.01532,973.361633 367.818542,973.090393 370.802612,972.999939" stroke="rgba(140,33,137,0.996078)" stroke-width="3"></polygon>
<polygon fill="rgba(173,220,193,0.996078)" filter="url(#dropshadow)" points="552.039612,278 552.039612,278 608.653137,278 611.637207,278.090424 614.44043,278.361694 617.062805,278.813843 619.504333,279.446838 621.765015,280.260681 623.844849,281.255371 625.743774,282.430908 627.461914,283.787323 628.999146,285.324554 630.35553,287.042664 631.531128,288.94165 632.525757,291.021454 633.3396,293.282135 633.972656,295.723633 634.424744,298.346008 634.696045,301.149261 634.786438,304.133331 634.786438,305.200012 634.696045,308.184082 634.424744,310.987305 633.972595,313.60968 633.339661,316.051208 632.525757,318.31189 631.531128,320.391693 630.35553,322.290649 628.999146,324.008759 627.461914,325.546021 625.743774,326.902435 623.844849,328.077972 621.765015,329.072662 619.504333,329.886505 617.062805,330.519501 614.44043,330.971619 611.637207,331.24292 608.653137,331.333344 552.039612,331.333344 549.055481,331.24292 546.252258,330.971619 543.629883,330.519501 541.188354,329.886505 538.927673,329.072662 536.8479,328.077972 534.948914,326.902405 533.230835,325.546021 531.693542,324.008759 530.337158,322.290649 529.161621,320.391693 528.166931,318.31189 527.353088,316.051208 526.720093,313.60968 526.267944,310.987305 525.996704,308.184082 525.90625,305.200012 525.90625,304.133331 525.996704,301.149261 526.267944,298.346008 526.720093,295.723633 527.353088,293.282135 528.166931,291.021454 529.161621,288.94165 530.337158,287.042664 531.693542,285.324554 533.230835,283.787323 534.948914,282.430908 536.8479,281.255371 538.927734,280.260681 541.188354,279.446838 543.629883,278.813843 546.252258,278.361694 549.055481,278.090424 552.039612,278" stroke="none"></polygon>
<g>
<text fill="rgba(0,0,0,0.996078)" font-family="LiberationSans, Arial" font-size="25.5" lengthAdjust="spacingAndGlyphs" textLength="85.546875" x="537.572937" y="314.041656">налоги</text>
</g>
<polygon fill="none" points="552.039612,278 552.039612,278 608.653137,278 611.637207,278.090424 614.44043,278.361694 617.062805,278.813843 619.504333,279.446838 621.765015,280.260681 623.844849,281.255371 625.743774,282.430908 627.461914,283.787323 628.999146,285.324554 630.35553,287.042664 631.531128,288.94165 632.525757,291.021454 633.3396,293.282135 633.972656,295.723633 634.424744,298.346008 634.696045,301.149261 634.786438,304.133331 634.786438,305.200012 634.696045,308.184082 634.424744,310.987305 633.972595,313.60968 633.339661,316.051208 632.525757,318.31189 631.531128,320.391693 630.35553,322.290649 628.999146,324.008759 627.461914,325.546021 625.743774,326.902435 623.844849,328.077972 621.765015,329.072662 619.504333,329.886505 617.062805,330.519501 614.44043,330.971619 611.637207,331.24292 608.653137,331.333344 552.039612,331.333344 549.055481,331.24292 546.252258,330.971619 543.629883,330.519501 541.188354,329.886505 538.927673,329.072662 536.8479,328.077972 534.948914,326.902405 533.230835,325.546021 531.693542,324.008759 530.337158,322.290649 529.161621,320.391693 528.166931,318.31189 527.353088,316.051208 526.720093,313.60968 526.267944,310.987305 525.996704,308.184082 525.90625,305.200012 525.90625,304.133331 525.996704,301.149261 526.267944,298.346008 526.720093,295.723633 527.353088,293.282135 528.166931,291.021454 529.161621,288.94165 530.337158,287.042664 531.693542,285.324554 533.230835,283.787323 534.948914,282.430908 536.8479,281.255371 538.927734,280.260681 541.188354,279.446838 543.629883,278.813843 546.252258,278.361694 549.055481,278.090424 552.039612,278" stroke="rgba(57,172,105,0.996078)" stroke-width="2"></polygon>
<polygon fill="rgba(173,220,193,0.996078)" filter="url(#dropshadow)" points="552.039612,381.333344 552.039612,381.333344 939.121887,381.333344 942.105957,381.423767 944.909241,381.695038 947.531616,382.147186 949.973145,382.780182 952.233765,383.594025 954.313599,384.588715 956.212524,385.764252 957.930664,387.120667 959.467896,388.657898 960.82428,390.376007 961.999878,392.274994 962.994507,394.354797 963.80835,396.615479 964.441406,399.056976 964.893555,401.679382 965.164795,404.482605 965.255249,407.466675 965.255249,408.533356 965.164795,411.517426 964.893555,414.320648 964.441406,416.943024 963.80835,419.384552 962.994507,421.645233 961.999878,423.725037 960.82428,425.623993 959.467896,427.342102 957.930664,428.879364 956.212524,430.235779 954.313599,431.411316 952.233765,432.406006 949.973083,433.219849 947.531555,433.852844 944.90918,434.304962 942.105957,434.576263 939.121887,434.666687 552.039612,434.666687 549.055481,434.576263 546.252258,434.304993 543.629883,433.852844 541.188354,433.219849 538.927673,432.406006 536.8479,431.411316 534.948914,430.235779 533.230835,428.879364 531.693542,427.342102 530.337158,425.623993 529.161621,423.725037 528.166931,421.645233 527.353088,419.384552 526.720093,416.943024 526.267944,414.320648 525.996704,411.517426 525.90625,408.533356 525.90625,407.466675 525.996704,404.482605 526.267944,401.679382 526.720093,399.056976 527.353088,396.615479 528.166931,394.354797 529.161621,392.274994 530.337158,390.376007 531.693542,388.657898 533.230835,387.120667 534.948914,385.764252 536.8479,384.588715 538.927734,383.594025 541.188354,382.780182 543.629883,382.147186 546.252258,381.695038 549.055481,381.423767 552.039612,381.333344" stroke="none"></polygon>
<g>
<text fill="rgba(0,0,0,0.996078)" font-family="LiberationSans, Arial" font-size="25.5" lengthAdjust="spacingAndGlyphs" textLength="416.015625" x="537.572937" y="417.375">специальные&#160;налоговые&#160;режимы</text>
</g>
<polygon fill="none" points="552.039612,381.333344 552.039612,381.333344 939.121887,381.333344 942.105957,381.423767 944.909241,381.695038 947.531616,382.147186 949.973145,382.780182 952.233765,383.594025 954.313599,384.588715 956.212524,385.764252 957.930664,387.120667 959.467896,388.657898 960.82428,390.376007 961.999878,392.274994 962.994507,394.354797 963.80835,396.615479 964.441406,399.056976 964.893555,401.679382 965.164795,404.482605 965.255249,407.466675 965.255249,408.533356 965.164795,411.517426 964.893555,414.320648 964.441406,416.943024 963.80835,419.384552 962.994507,421.645233 961.999878,423.725037 960.82428,425.623993 959.467896,427.342102 957.930664,428.879364 956.212524,430.235779 954.313599,431.411316 952.233765,432.406006 949.973083,433.219849 947.531555,433.852844 944.90918,434.304962 942.105957,434.576263 939.121887,434.666687 552.039612,434.666687 549.055481,434.576263 546.252258,434.304993 543.629883,433.852844 541.188354,433.219849 538.927673,432.406006 536.8479,431.411316 534.948914,430.235779 533.230835,428.879364 531.693542,427.342102 530.337158,425.623993 529.161621,423.725037 528.166931,421.645233 527.353088,419.384552 526.720093,416.943024 526.267944,414.320648 525.996704,411.517426 525.90625,408.533356 525.90625,407.466675 525.996704,404.482605 526.267944,401.679382 526.720093,399.056976 527.353088,396.615479 528.166931,394.354797 529.161621,392.274994 530.337158,390.376007 531.693542,388.657898 533.230835,387.120667 534.948914,385.764252 536.8479,384.588715 538.927734,383.594025 541.188354,382.780182 543.629883,382.147186 546.252258,381.695038 549.055481,381.423767 552.039612,381.333344" stroke="rgba(57,172,105,0.996078)" stroke-width="2"></polygon>
<polygon fill="rgba(173,220,193,0.996078)" filter="url(#dropshadow)" points="552.039612,484.666687 552.039612,484.666687 601.153137,484.666687 604.137207,484.757111 606.94043,485.028381 609.562805,485.48053 612.004333,486.113525 614.265015,486.927368 616.344849,487.922058 618.243774,489.097595 619.961914,490.45401 621.499146,491.991241 622.85553,493.709351 624.031128,495.608337 625.025757,497.688141 625.8396,499.948822 626.472656,502.39032 626.924744,505.012695 627.196045,507.815948 627.286438,510.800018 627.286438,511.866699 627.196045,514.850769 626.924744,517.653992 626.472656,520.276367 625.839661,522.717896 625.025757,524.978577 624.031128,527.058411 622.85553,528.957336 621.499146,530.675476 619.961914,532.212708 618.243774,533.569092 616.344849,534.744629 614.265015,535.73938 612.004333,536.553223 609.562805,537.186157 606.94043,537.638306 604.137207,537.909607 601.153137,538 552.039612,538 549.055481,537.909607 546.252258,537.638306 543.629883,537.186157 541.188354,536.553223 538.927673,535.73938 536.8479,534.74469 534.948914,533.569092 533.230835,532.212708 531.693542,530.675476 530.337158,528.957336 529.161621,527.058411 528.166931,524.978577 527.353088,522.717896 526.720093,520.276367 526.267944,517.653992 525.996704,514.850769 525.90625,511.866699 525.90625,510.800018 525.996704,507.815948 526.267944,505.012695 526.720093,502.39032 527.353088,499.948822 528.166931,497.688141 529.161621,495.608337 530.337158,493.709351 531.693542,491.991241 533.230835,490.45401 534.948914,489.097595 536.8479,487.922058 538.927734,486.927368 541.188354,486.113525 543.629883,485.48053 546.252258,485.028381 549.055481,484.757111 552.039612,484.666687" stroke="none"></polygon>
<g>
<text fill="rgba(0,0,0,0.996078)" font-family="LiberationSans, Arial" font-size="25.5" lengthAdjust="spacingAndGlyphs" textLength="78.046875" x="537.572937" y="520.708374">сборы</text>
</g>
<polygon fill="none" points="552.039612,484.666687 552.039612,484.666687 601.153137,484.666687 604.137207,484.757111 606.94043,485.028381 609.562805,485.48053 612.004333,486.113525 614.265015,486.927368 616.344849,487.922058 618.243774,489.097595 619.961914,490.45401 621.499146,491.991241 622.85553,493.709351 624.031128,495.608337 625.025757,497.688141 625.8396,499.948822 626.472656,502.39032 626.924744,505.012695 627.196045,507.815948 627.286438,510.800018 627.286438,511.866699 627.196045,514.850769 626.924744,517.653992 626.472656,520.276367 625.839661,522.717896 625.025757,524.978577 624.031128,527.058411 622.85553,528.957336 621.499146,530.675476 619.961914,532.212708 618.243774,533.569092 616.344849,534.744629 614.265015,535.73938 612.004333,536.553223 609.562805,537.186157 606.94043,537.638306 604.137207,537.909607 601.153137,538 552.039612,538 549.055481,537.909607 546.252258,537.638306 543.629883,537.186157 541.188354,536.553223 538.927673,535.73938 536.8479,534.74469 534.948914,533.569092 533.230835,532.212708 531.693542,530.675476 530.337158,528.957336 529.161621,527.058411 528.166931,524.978577 527.353088,522.717896 526.720093,520.276367 526.267944,517.653992 525.996704,514.850769 525.90625,511.866699 525.90625,510.800018 525.996704,507.815948 526.267944,505.012695 526.720093,502.39032 527.353088,499.948822 528.166931,497.688141 529.161621,495.608337 530.337158,493.709351 531.693542,491.991241 533.230835,490.45401 534.948914,489.097595 536.8479,487.922058 538.927734,486.927368 541.188354,486.113525 543.629883,485.48053 546.252258,485.028381 549.055481,484.757111 552.039612,484.666687" stroke="rgba(57,172,105,0.996078)" stroke-width="2"></polygon>
<polygon fill="rgba(173,220,193,0.996078)" filter="url(#dropshadow)" points="552.039612,588 552.039612,588 751.621887,588 754.605957,588.090454 757.40918,588.361694 760.031616,588.813843 762.473083,589.446838 764.733765,590.260681 766.813599,591.255371 768.712524,592.430908 770.430664,593.787292 771.967896,595.324585 773.324341,597.042664 774.499878,598.94165 775.494568,601.021484 776.308411,603.282104 776.941406,605.723633 777.393555,608.346008 777.664795,611.149231 777.755249,614.133362 777.755249,615.200012 777.664795,618.184082 777.393555,620.987305 776.941406,623.60968 776.308411,626.051208 775.494507,628.31189 774.499878,630.391724 773.32428,632.290649 771.967896,634.008789 770.430664,635.546021 768.712524,636.902405 766.813599,638.078003 764.733765,639.072693 762.473083,639.886475 760.031616,640.51947 757.40918,640.971619 754.605957,641.24292 751.621887,641.333313 552.039612,641.333313 549.055481,641.24292 546.252258,640.971619 543.629883,640.51947 541.188354,639.886475 538.927673,639.072632 536.8479,638.078003 534.948914,636.902405 533.230835,635.546021 531.693542,634.008789 530.337158,632.290649 529.161621,630.391724 528.166931,628.31189 527.353088,626.051208 526.720093,623.60968 526.267944,620.987305 525.996704,618.184082 525.90625,615.200012 525.90625,614.133362 525.996704,611.149231 526.267944,608.346008 526.720093,605.723633 527.353088,603.282104 528.166931,601.021423 529.161621,598.94165 530.337158,597.042664 531.693542,595.324585 533.230835,593.787292 534.948914,592.430908 536.8479,591.255371 538.927734,590.260681 541.188354,589.446838 543.629883,588.813843 546.252258,588.361694 549.055481,588.090454 552.039612,588" stroke="none"></polygon>
<g>
<text fill="rgba(0,0,0,0.996078)" font-family="LiberationSans, Arial" font-size="25.5" lengthAdjust="spacingAndGlyphs" textLength="228.515625" x="537.572937" y="624.041687">страховые&#160;взносы</text>
</g>
<polygon fill="none" points="552.039612,588 552.039612,588 751.621887,588 754.605957,588.090454 757.40918,588.361694 760.031616,588.813843 762.473083,589.446838 764.733765,590.260681 766.813599,591.255371 768.712524,592.430908 770.430664,593.787292 771.967896,595.324585 773.324341,597.042664 774.499878,598.94165 775.494568,601.021484 776.308411,603.282104 776.941406,605.723633 777.393555,608.346008 777.664795,611.149231 777.755249,614.133362 777.755249,615.200012 777.664795,618.184082 777.393555,620.987305 776.941406,623.60968 776.308411,626.051208 775.494507,628.31189 774.499878,630.391724 773.32428,632.290649 771.967896,634.008789 770.430664,635.546021 768.712524,636.902405 766.813599,638.078003 764.733765,639.072693 762.473083,639.886475 760.031616,640.51947 757.40918,640.971619 754.605957,641.24292 751.621887,641.333313 552.039612,641.333313 549.055481,641.24292 546.252258,640.971619 543.629883,640.51947 541.188354,639.886475 538.927673,639.072632 536.8479,638.078003 534.948914,636.902405 533.230835,635.546021 531.693542,634.008789 530.337158,632.290649 529.161621,630.391724 528.166931,628.31189 527.353088,626.051208 526.720093,623.60968 526.267944,620.987305 525.996704,618.184082 525.90625,615.200012 525.90625,614.133362 525.996704,611.149231 526.267944,608.346008 526.720093,605.723633 527.353088,603.282104 528.166931,601.021423 529.161621,598.94165 530.337158,597.042664 531.693542,595.324585 533.230835,593.787292 534.948914,592.430908 536.8479,591.255371 538.927734,590.260681 541.188354,589.446838 543.629883,588.813843 546.252258,588.361694 549.055481,588.090454 552.039612,588" stroke="rgba(57,172,105,0.996078)" stroke-width="2"></polygon>
<polygon fill="rgba(163,185,167,0.996078)" filter="url(#dropshadow)" points="554.617737,844.666626 554.617737,844.666626 611.231262,844.666626 614.215332,844.75708 617.018555,845.02832 619.64093,845.480469 622.082458,846.113464 624.34314,846.927307 626.422974,847.921997 628.321899,849.097534 630.040039,850.453918 631.577271,851.991211 632.933655,853.70929 634.109253,855.608276 635.103882,857.68811 635.917725,859.94873 636.550781,862.390259 637.002869,865.012634 637.27417,867.815857 637.364563,870.799988 637.364563,871.866638 637.27417,874.850708 637.002869,877.653931 636.55072,880.276306 635.917786,882.717834 635.103882,884.978516 634.109253,887.05835 632.933655,888.957275 631.577271,890.675415 630.040039,892.212646 628.321899,893.569031 626.422974,894.744629 624.34314,895.739319 622.082458,896.553101 619.64093,897.186096 617.018555,897.638245 614.215332,897.909546 611.231262,897.999939 554.617737,897.999939 551.633606,897.909546 548.830383,897.638245 546.208008,897.186096 543.766479,896.553101 541.505798,895.739258 539.426025,894.744629 537.527039,893.569031 535.80896,892.212646 534.271667,890.675415 532.915283,888.957275 531.739746,887.05835 530.745056,884.978516 529.931213,882.717834 529.298218,880.276306 528.846069,877.653931 528.574829,874.850708 528.484375,871.866638 528.484375,870.799988 528.574829,867.815857 528.846069,865.012634 529.298218,862.390259 529.931213,859.94873 530.745056,857.688049 531.739746,855.608276 532.915283,853.70929 534.271667,851.991211 535.80896,850.453918 537.527039,849.097534 539.426025,847.921997 541.505859,846.927307 543.766479,846.113464 546.208008,845.480469 548.830383,845.02832 551.633606,844.75708 554.617737,844.666626" stroke="none"></polygon>
<g>
<text fill="rgba(0,0,0,0.996078)" font-family="LiberationSans, Arial" font-size="25.5" lengthAdjust="spacingAndGlyphs" textLength="85.546875" x="540.151062" y="880.708313">налоги</text>
</g>
<polygon fill="none" points="554.617737,844.666626 554.617737,844.666626 611.231262,844.666626 614.215332,844.75708 617.018555,845.02832 619.64093,845.480469 622.082458,846.113464 624.34314,846.927307 626.422974,847.921997 628.321899,849.097534 630.040039,850.453918 631.577271,851.991211 632.933655,853.70929 634.109253,855.608276 635.103882,857.68811 635.917725,859.94873 636.550781,862.390259 637.002869,865.012634 637.27417,867.815857 637.364563,870.799988 637.364563,871.866638 637.27417,874.850708 637.002869,877.653931 636.55072,880.276306 635.917786,882.717834 635.103882,884.978516 634.109253,887.05835 632.933655,888.957275 631.577271,890.675415 630.040039,892.212646 628.321899,893.569031 626.422974,894.744629 624.34314,895.739319 622.082458,896.553101 619.64093,897.186096 617.018555,897.638245 614.215332,897.909546 611.231262,897.999939 554.617737,897.999939 551.633606,897.909546 548.830383,897.638245 546.208008,897.186096 543.766479,896.553101 541.505798,895.739258 539.426025,894.744629 537.527039,893.569031 535.80896,892.212646 534.271667,890.675415 532.915283,888.957275 531.739746,887.05835 530.745056,884.978516 529.931213,882.717834 529.298218,880.276306 528.846069,877.653931 528.574829,874.850708 528.484375,871.866638 528.484375,870.799988 528.574829,867.815857 528.846069,865.012634 529.298218,862.390259 529.931213,859.94873 530.745056,857.688049 531.739746,855.608276 532.915283,853.70929 534.271667,851.991211 535.80896,850.453918 537.527039,849.097534 539.426025,847.921997 541.505859,846.927307 543.766479,846.113464 546.208008,845.480469 548.830383,845.02832 551.633606,844.75708 554.617737,844.666626" stroke="rgba(32,86,42,0.996078)" stroke-width="2"></polygon>
<polygon fill="rgba(207,163,206,0.996078)" filter="url(#dropshadow)" points="515.828674,1101.333252 515.828674,1101.333252 572.4422,1101.333252 575.42627,1101.423706 578.229492,1101.694946 580.851868,1102.147095 583.293396,1102.780029 585.554077,1103.593872 587.633911,1104.588623 589.532837,1105.76416 591.250977,1107.120605 592.788208,1108.657837 594.144592,1110.375977 595.32019,1112.274902 596.314819,1114.354736 597.128662,1116.615356 597.761719,1119.056885 598.213806,1121.679321 598.485107,1124.482544 598.5755,1127.466553 598.5755,1128.533203 598.485107,1131.517334 598.213806,1134.320557 597.761658,1136.942993 597.128723,1139.384521 596.314819,1141.645142 595.32019,1143.724976 594.144592,1145.623901 592.788208,1147.342041 591.250977,1148.879272 589.532837,1150.235718 587.633911,1151.411255 585.554077,1152.405884 583.293396,1153.219727 580.851868,1153.852783 578.229492,1154.304932 575.42627,1154.576172 572.4422,1154.666626 515.828674,1154.666626 512.844543,1154.576172 510.041321,1154.304932 507.418945,1153.852783 504.977448,1153.219727 502.716766,1152.405884 500.636963,1151.411255 498.737976,1150.235718 497.019867,1148.879272 495.482635,1147.342041 494.126221,1145.623901 492.950684,1143.724976 491.955994,1141.645142 491.142151,1139.384521 490.509155,1136.942993 490.057007,1134.320557 489.785736,1131.517334 489.695312,1128.533203 489.695312,1127.466553 489.785736,1124.482544 490.057007,1121.679321 490.509155,1119.056885 491.142151,1116.615356 491.955994,1114.354736 492.950684,1112.274902 494.126221,1110.375977 495.482635,1108.657837 497.019867,1107.120605 498.737976,1105.76416 500.636963,1104.588623 502.716766,1103.593872 504.977448,1102.780029 507.418945,1102.147095 510.041321,1101.694946 512.844543,1101.423706 515.828674,1101.333252" stroke="none"></polygon>
<g>
<text fill="rgba(0,0,0,0.996078)" font-family="LiberationSans, Arial" font-size="25.5" lengthAdjust="spacingAndGlyphs" textLength="85.546875" x="501.361969" y="1137.374878">налоги</text>
</g>
<polygon fill="none" points="515.828674,1101.333252 515.828674,1101.333252 572.4422,1101.333252 575.42627,1101.423706 578.229492,1101.694946 580.851868,1102.147095 583.293396,1102.780029 585.554077,1103.593872 587.633911,1104.588623 589.532837,1105.76416 591.250977,1107.120605 592.788208,1108.657837 594.144592,1110.375977 595.32019,1112.274902 596.314819,1114.354736 597.128662,1116.615356 597.761719,1119.056885 598.213806,1121.679321 598.485107,1124.482544 598.5755,1127.466553 598.5755,1128.533203 598.485107,1131.517334 598.213806,1134.320557 597.761658,1136.942993 597.128723,1139.384521 596.314819,1141.645142 595.32019,1143.724976 594.144592,1145.623901 592.788208,1147.342041 591.250977,1148.879272 589.532837,1150.235718 587.633911,1151.411255 585.554077,1152.405884 583.293396,1153.219727 580.851868,1153.852783 578.229492,1154.304932 575.42627,1154.576172 572.4422,1154.666626 515.828674,1154.666626 512.844543,1154.576172 510.041321,1154.304932 507.418945,1153.852783 504.977448,1153.219727 502.716766,1152.405884 500.636963,1151.411255 498.737976,1150.235718 497.019867,1148.879272 495.482635,1147.342041 494.126221,1145.623901 492.950684,1143.724976 491.955994,1141.645142 491.142151,1139.384521 490.509155,1136.942993 490.057007,1134.320557 489.785736,1131.517334 489.695312,1128.533203 489.695312,1127.466553 489.785736,1124.482544 490.057007,1121.679321 490.509155,1119.056885 491.142151,1116.615356 491.955994,1114.354736 492.950684,1112.274902 494.126221,1110.375977 495.482635,1108.657837 497.019867,1107.120605 498.737976,1105.76416 500.636963,1104.588623 502.716766,1103.593872 504.977448,1102.780029 507.418945,1102.147095 510.041321,1101.694946 512.844543,1101.423706 515.828674,1101.333252" stroke="rgba(140,33,137,0.996078)" stroke-width="2"></polygon>
<polygon fill="rgba(207,163,206,0.996078)" filter="url(#dropshadow)" points="515.828674,1204.666626 515.828674,1204.666626 564.9422,1204.666626 567.92627,1204.75708 570.729492,1205.02832 573.351868,1205.480469 575.793396,1206.113403 578.054077,1206.927246 580.133911,1207.921997 582.032837,1209.097534 583.750977,1210.453979 585.288208,1211.991211 586.644592,1213.709351 587.82019,1215.608276 588.814819,1217.68811 589.628662,1219.94873 590.261719,1222.390259 590.713806,1225.012695 590.985107,1227.815918 591.0755,1230.799927 591.0755,1231.866577 590.985107,1234.850708 590.713806,1237.653931 590.261719,1240.276367 589.628723,1242.717896 588.814819,1244.978516 587.82019,1247.05835 586.644592,1248.957275 585.288208,1250.675415 583.750977,1252.212646 582.032837,1253.569092 580.133911,1254.744629 578.054077,1255.739258 575.793396,1256.553101 573.351868,1257.186157 570.729492,1257.638306 567.92627,1257.909546 564.9422,1258 515.828674,1258 512.844543,1257.909546 510.041321,1257.638306 507.418945,1257.186157 504.977448,1256.553101 502.716766,1255.739258 500.636963,1254.744629 498.737976,1253.569092 497.019867,1252.212646 495.482635,1250.675415 494.126221,1248.957275 492.950684,1247.05835 491.955994,1244.978516 491.142151,1242.717896 490.509155,1240.276367 490.057007,1237.653931 489.785736,1234.850708 489.695312,1231.866577 489.695312,1230.799927 489.785736,1227.815918 490.057007,1225.012695 490.509155,1222.390259 491.142151,1219.94873 491.955994,1217.68811 492.950684,1215.608276 494.126221,1213.709351 495.482635,1211.991211 497.019867,1210.453979 498.737976,1209.097534 500.636963,1207.921997 502.716766,1206.927246 504.977448,1206.113403 507.418945,1205.480469 510.041321,1205.02832 512.844543,1204.75708 515.828674,1204.666626" stroke="none"></polygon>
<g>
<text fill="rgba(0,0,0,0.996078)" font-family="LiberationSans, Arial" font-size="25.5" lengthAdjust="spacingAndGlyphs" textLength="78.046875" x="501.361969" y="1240.708252">сборы</text>
</g>
<polygon fill="none" points="515.828674,1204.666626 515.828674,1204.666626 564.9422,1204.666626 567.92627,1204.75708 570.729492,1205.02832 573.351868,1205.480469 575.793396,1206.113403 578.054077,1206.927246 580.133911,1207.921997 582.032837,1209.097534 583.750977,1210.453979 585.288208,1211.991211 586.644592,1213.709351 587.82019,1215.608276 588.814819,1217.68811 589.628662,1219.94873 590.261719,1222.390259 590.713806,1225.012695 590.985107,1227.815918 591.0755,1230.799927 591.0755,1231.866577 590.985107,1234.850708 590.713806,1237.653931 590.261719,1240.276367 589.628723,1242.717896 588.814819,1244.978516 587.82019,1247.05835 586.644592,1248.957275 585.288208,1250.675415 583.750977,1252.212646 582.032837,1253.569092 580.133911,1254.744629 578.054077,1255.739258 575.793396,1256.553101 573.351868,1257.186157 570.729492,1257.638306 567.92627,1257.909546 564.9422,1258 515.828674,1258 512.844543,1257.909546 510.041321,1257.638306 507.418945,1257.186157 504.977448,1256.553101 502.716766,1255.739258 500.636963,1254.744629 498.737976,1253.569092 497.019867,1252.212646 495.482635,1250.675415 494.126221,1248.957275 492.950684,1247.05835 491.955994,1244.978516 491.142151,1242.717896 490.509155,1240.276367 490.057007,1237.653931 489.785736,1234.850708 489.695312,1231.866577 489.695312,1230.799927 489.785736,1227.815918 490.057007,1225.012695 490.509155,1222.390259 491.142151,1219.94873 491.955994,1217.68811 492.950684,1215.608276 494.126221,1213.709351 495.482635,1211.991211 497.019867,1210.453979 498.737976,1209.097534 500.636963,1207.921997 502.716766,1206.927246 504.977448,1206.113403 507.418945,1205.480469 510.041321,1205.02832 512.844543,1204.75708 515.828674,1204.666626" stroke="rgba(140,33,137,0.996078)" stroke-width="2"></polygon>
</svg>
